PathFileType	4	(X/Y/Z)	69_1_32_p1_0-401_filt_butterworth.trc
DataRate	CameraRate	NumFrames	NumMarkers	Units	OrigDataRate	OrigDataStartFrame	OrigNumFrames
59.0	59.0	7	27	m	59.0	300	401
Frame#	Time	RHip			RKnee			RAnkle			RBigToe			RSmallToe			RHeel			LHip			LKnee			LAnkle			LBigToe			LSmallToe			LHeel			Neck			Head			Nose			RShoulder			RElbow			RWrist			RThumb			RIndex			RPinky			LShoulder			LElbow			LWrist			LThumb			LIndex			LPinky			
		X1	Y1	Z1	X2	Y2	Z2	X3	Y3	Z3	X4	Y4	Z4	X5	Y5	Z5	X6	Y6	Z6	X7	Y7	Z7	X8	Y8	Z8	X9	Y9	Z9	X10	Y10	Z10	X11	Y11	Z11	X12	Y12	Z12	X13	Y13	Z13	X14	Y14	Z14	X15	Y15	Z15	X16	Y16	Z16	X17	Y17	Z17	X18	Y18	Z18	X19	Y19	Z19	X20	Y20	Z20	X21	Y21	Z21	X22	Y22	Z22	X23	Y23	Z23	X24	Y24	Z24	X25	Y25	Z25	X26	Y26	Z26	X27	Y27	Z27	
300	5.084745762711864	0.28676242716499756	0.543102802643594	0.5412836332119811	0.27591820380252696	0.5205279946523017	0.9296381079123882	0.22701498196392078	0.5539089111091141	1.3141054479778798	0.263721464034726	0.47488102329723814	1.3566822554392626	0.32410980282623264	0.4861978634205613	1.3385774702019715	0.18199926571116276	0.6362170529698601	1.3943904956917854	0.06153404171714546	0.4922814236066628	0.564985986336698	0.04826127668656014	0.4515303221300101	0.9348513171891062	0.01508352543441923	0.5107417481027704	1.34133340027666	0.11810668129947473	0.3529870616251108	1.3140567315104985	0.04159065457552689	0.3888629281779754	1.3431167861452646	-0.02898898842407559	0.6009769109209003	1.4223191104743718	0.2367056017201315	0.47538762184672523	0.013442267442254536	0.2598835433405705	0.4633556195525982	-0.23112940190821704	0.30790029458223356	0.4007249342547812	-0.10267196379494002	0.37273632507303894	0.5194033348751632	0.08421926094911776	0.5728804563823177	0.4360971205929996	0.13287217671815338	0.6223542841451203	0.366991162216144	-0.07238682398178076	0.6140228088989454	0.37491625851464444	-0.16681816137635733	0.6570197977071144	0.373475808674311	-0.20199145082737174	0.6772679198539476	0.34291484531192995	-0.1796876387739123	0.0718063845210488	0.40862890216859854	0.1032181195673541	-0.02761744978576051	0.37498343287333813	0.3147733910344338	-0.07057164266843172	0.322997136270559	0.5490182517356565	-0.05569171706624554	0.336197464108709	0.6544220851249579	-0.06565524758621082	0.31510600717630466	0.6657228816926126	-0.07771812310147963	0.29790267172595386	0.6514126296609948
301	5.101694915254237	0.28690590598870397	0.5431018800038845	0.5382429427941826	0.27602910908477835	0.5172988416386768	0.9282091457934725	0.22691053733285063	0.553520726162182	1.3135925543428144	0.26325619895173624	0.4766986842888382	1.3593766556438909	0.32391155762638635	0.487385642242029	1.3415288033227313	0.18195344651493028	0.6298819000816874	1.3916038799924522	0.06152349165593448	0.49248197967333884	0.5614086718597026	0.04791536787338813	0.45299576127086083	0.9322641611581609	0.01426543130787446	0.5145309289133747	1.3438162875808002	0.11953793785619045	0.3500604615670907	1.31304916541206	0.0417832997032941	0.3870785856487056	1.3441224747520066	-0.028809644793074636	0.6006912999719048	1.422184582057366	0.23698767980294147	0.47565563965748303	0.013012212645652586	0.2599573536681086	0.46593813976196813	-0.23142527078562602	0.308397074998007	0.40113925359316527	-0.10251817254537374	0.3673639529619586	0.5225227589288923	0.08033690618151731	0.5684433999460844	0.42473169441618996	0.11650709488684523	0.6033172173387695	0.35514540916716214	-0.08750936704683852	0.5993535300807623	0.3808077141984945	-0.1823823683440745	0.6334439529830703	0.37141167597820857	-0.21103252953430315	0.6455797583177908	0.3294215656545283	-0.1939556225840928	0.07158721084687174	0.4116159406226607	0.10373598143340043	-0.027800796114950052	0.3764139714921027	0.3151541704066011	-0.07072830281835962	0.3232621291308709	0.5488892920116366	-0.0557676146131975	0.33586004039895906	0.6542115462755839	-0.0649617727653167	0.30980637694170665	0.6638459171861151	-0.07877511074495759	0.2981544855308419	0.6513570734965847
302	5.11864406779661	0.286962325724787	0.5435479549875389	0.5361665732901382	0.2756216724107704	0.5175784184268082	0.9294575344534929	0.22686234376320843	0.5534182543423237	1.3136104180073298	0.26286346388535375	0.48030276330610666	1.3622692829846665	0.3238891077715462	0.4884823814933693	1.3432121242690622	0.18163919951776	0.6253067678666958	1.390418951508509	0.06139881074774994	0.4926078721409493	0.5594598518002865	0.0473880492901316	0.45656943008340506	0.9320370692645497	0.014256393959898781	0.51449821437046	1.3438462899486876	0.11891798677003046	0.3512148033773598	1.3141238547197767	0.042248027428800225	0.38519252740642973	1.3444680377174385	-0.029691566061635644	0.6005090562679755	1.4225468043937828	0.2368478011013466	0.4757323168774764	0.013097285581717926	0.26049357496001185	0.46929228829681263	-0.2315382910558776	0.3095617870763811	0.4017457711504967	-0.10221797062948122	0.36240919036599495	0.5230411902429574	0.07689911113990656	0.5617816182190738	0.4141846749454036	0.10278210263335143	0.5780678145434295	0.3329964736886474	-0.09791811724494155	0.5712548816912204	0.37911998937490077	-0.1926653547122693	0.5934138047706092	0.3660130813315697	-0.212916712544863	0.6007109280097669	0.31303528378663065	-0.19939049406912623	0.07115397614216061	0.41551247923203233	0.10434408222683608	-0.02777850184567053	0.37639892599222763	0.3150401796606442	-0.07082148146305138	0.3236013365824668	0.548883777492969	-0.055805484623351775	0.335488885920249	0.6540720733401441	-0.06411595854534755	0.30478635975604795	0.6613747874822637	-0.07971777185330228	0.2967432432522542	0.6510528532848734
303	5.135593220338983	0.286981062155278	0.5443656104163062	0.5339854509813418	0.27430974385445406	0.5224823205311346	0.9319901955758161	0.22685235779271937	0.5534836876993168	1.3137628817060816	0.2623768987707491	0.4846064832412567	1.3647336026895276	0.3236947134484995	0.4905604114580172	1.3445258837691993	0.1807212300968475	0.6240668767116119	1.3906445178694136	0.061409479317435144	0.49285356805936087	0.5582373249865829	0.04695204873462985	0.46124584145731873	0.9329938770125669	0.01504977705655568	0.510480806902301	1.3416572052708984	0.11774088041146999	0.35613430529182377	1.3166731212305325	0.04472533315251701	0.3824648916063153	1.3418956941464588	-0.0321783437951815	0.600145109794376	1.422914631858333	0.23661666995282826	0.4758033938078744	0.01368162462818882	0.2613788407795796	0.47266245201096013	-0.23108933388383723	0.31084939496437836	0.40231413129876054	-0.10184778511591018	0.35923483731683076	0.5200104337080541	0.07311767676788716	0.5527399252913054	0.40687878883552486	0.09353492908781649	0.5480250273085806	0.31393480052265876	-0.10209374650118004	0.5311911307562198	0.3653508167636239	-0.1942137289867655	0.5455286697822013	0.3516344255574787	-0.21164035523680236	0.5543240127277655	0.29620945051864755	-0.19842129681701332	0.07084098184902833	0.4185242363416467	0.10440389111584879	-0.027440478408554625	0.37505262494619984	0.31386872998326154	-0.07092203124308928	0.32412414805660544	0.5490593558712735	-0.055895645640886206	0.3352645246118913	0.654100034926666	-0.06347864936008989	0.3011801808423763	0.6593798894891696	-0.08070422501754528	0.29505238141194623	0.6510237299545796
304	5.152542372881356	0.2868918054537617	0.5452945648892813	0.53191306705233	0.2715179936022417	0.5300490594069159	0.9340580769396418	0.22682695898379412	0.5536027730347628	1.3138796360802125	0.26101833296401966	0.48984066581209085	1.3683380769285935	0.322492509297663	0.4953996455118178	1.347302292628112	0.1787517955187152	0.6250403142253022	1.3917242094708435	0.06149582937429941	0.4935629249050565	0.5568446022257727	0.0467399181459459	0.46493439962763267	0.9330413416255358	0.01621984360427315	0.504722922982086	1.3385968035255684	0.11734071124575293	0.36325898420067193	1.3203296872563788	0.04799614279265164	0.3802307482949081	1.3376639046138448	-0.03557805396739399	0.5997293899141386	1.42305299939311	0.23625647303356356	0.47579580319738024	0.014799458531534223	0.2621669558097185	0.47550209526639653	-0.23015738793133683	0.31104932396726925	0.40278171649278355	-0.1016381562748922	0.3579578446437283	0.5162037948232361	0.0690215324092908	0.5439066983885216	0.4041216076862283	0.08922196027038753	0.5192966942015571	0.3055261877909695	-0.10027111382802702	0.48692018582539914	0.34560445893609865	-0.18913624808465979	0.5012347558683592	0.32866194809144644	-0.21042742675398912	0.5170558204461977	0.28064188054854605	-0.1930209397168153	0.07075513466936335	0.4198641944356661	0.10329791358594564	-0.02659631356683425	0.3720119623207835	0.3115227615543787	-0.0709963532915652	0.32447390255672787	0.5491827591564589	-0.05600941983846504	0.33531676265927557	0.6543392324699142	-0.06344644591580148	0.2989777749982854	0.6582476900576382	-0.08165036559602509	0.29335202289913404	0.6511154437822539
305	5.169491525423729	0.2865966930937099	0.5461382021326683	0.5307582066012476	0.26768651162940166	0.5368124544752856	0.9350669818767803	0.22675226684599034	0.5537548441830753	1.3139551240803764	0.2581248158930613	0.4962229299138582	1.3739181757789511	0.3196965134623376	0.503181740962621	1.3519836454167917	0.17558883943718342	0.6262803320289294	1.3932872249431947	0.06178068107261503	0.4948868959537154	0.555104604796608	0.04664097416634477	0.4666414577611246	0.9316160314240896	0.016914743828154225	0.500632771887812	1.3364963912261152	0.11762807112074876	0.37018774762866674	1.324567675340795	0.04886940004138358	0.38114207916357806	1.3357189311585516	-0.03825205672373841	0.599430126412293	1.4234312687273551	0.23547219422089258	0.47536435478428746	0.015807684899418334	0.2626309857008847	0.4771204268681346	-0.22956789924942544	0.3093723557068051	0.40382793545600576	-0.10211032338064417	0.35784994088217	0.5151993433150838	0.06521795067872159	0.5381220844972551	0.40433809408444843	0.08959675957452738	0.49886904404602683	0.3043984026890781	-0.09397789004953956	0.44788073671381334	0.32808280328294814	-0.18121711581170213	0.46502368976389213	0.30818210764844967	-0.2086228229717953	0.49099028629726305	0.26855035146874806	-0.1820842975163878	0.07077936933005072	0.42023219734287254	0.10111659224100976	-0.025396822035329218	0.3680602568068718	0.30862601675246565	-0.07087695572504146	0.3232867270558792	0.5485168729921298	-0.05609928937048795	0.3355036720065965	0.654685212858902	-0.06398162123148234	0.29705076660325924	0.6576115654897527	-0.08244486982946764	0.29179851643147453	0.6510905228768942
306	5.186440677966102	0.28615145778565537	0.5467698560003981	0.530376618923042	0.26418852682316996	0.5402318519304642	0.9352618971814309	0.226647560246477	0.5539430439313959	1.314025295671835	0.2542854135150102	0.5019634179953619	1.3790935379898623	0.31589907138640105	0.5108436290418286	1.3565180127784087	0.17201584494958894	0.6267505832404395	1.3951604925542418	0.06258818834871495	0.49656599990666694	0.5534368300956343	0.046515754260901376	0.467031774575105	0.929657508228468	0.01613775986749284	0.5003756567704722	1.3364680705021859	0.1175241139465698	0.3745103865745268	1.3280304450823777	0.046116446468695206	0.38606844226216075	1.337868848194346	-0.03928964786694002	0.5993039973778693	1.4240005105755773	0.23435090152430763	0.47442114354998943	0.015532401475648324	0.2628048725344462	0.47728952115586415	-0.23011225064694152	0.3064969813732672	0.4058155168689481	-0.10368364653877646	0.3581137426629213	0.5174306402805183	0.06182314592163733	0.5357990752541731	0.4054755250506206	0.09398401348487048	0.48848902933945637	0.30530076541962453	-0.08535000459409851	0.4208293847581288	0.3162487693877985	-0.17192997270330682	0.43763738555037274	0.299423436087358	-0.20441828613369895	0.4747453829966699	0.2607323144566881	-0.16777926837005647	0.07076996879367331	0.42043337960993954	0.09883374479313906	-0.02435759796333461	0.36504390992816393	0.3062786203208373	-0.07048971752168365	0.31881900658352513	0.546181483649266	-0.05617927892262044	0.33512428286387175	0.6547004371371765	-0.06463500465867292	0.2948276229489418	0.6566081920613205	-0.08288139223157096	0.2908239217743657	0.6507725597176536
